<svg xmlns="http://www.w3.org/2000/svg" version="1.1" viewBox="-5.0 -10.0 110.0 135.0">
 <path d="m50.02 5c0.015625 0.23828 0.011719 0.47656 0.015625 0.71484 0 0.22266-0.027344 0.44531-0.007812 0.66797 0.023437 0.22656 0.007812 0.45703 0.007812 0.6875-0.003906 0.13281-0.007812 0.26563-0.007812 0.40234 0 0.13672 0.027344 0.28125 0 0.41406-0.039063 0.21484 0.027344 0.43359-0.050782 0.64062 0.125 0.24219 0.039063 0.50391 0.050782 0.75391 0.007812 0.11719-0.03125 0.24219-0.050782 0.36328-0.003906 0.019531-0.007812 0.042969 0 0.058594 0.11719 0.28125 0.070313 0.58594 0.019532 0.85547-0.042969 0.21484 0.14453 0.41797-0.019532 0.60938 0 0.36719-0.03125 0.73828 0.011719 1.1016 0.019531 0.16406-0.03125 0.30469-0.019531 0.46094 0.011719 0.19922 0.03125 0.40234 0.011719 0.60938-0.023438 0.22656-0.003907 0.45703-0.003907 0.68359v0.65625 0.66016 0.68359 0.65625c0 2.0312 0 4.0625-0.003906 6.0938 0 0.14062 0.019532 0.27734-0.042968 0.42578-0.046876 0.11328 0.027343 0.26953 0.011718 0.41797-0.035156 0.31641 0.11328 0.63672-0.023437 0.95312-0.015625 0.035157-0.019531 0.09375 0 0.11719 0.10156 0.12109-0.027344 0.26562 0.023437 0.35938 0.078125 0.14062-0.023437 0.23438-0.023437 0.34766 0.003906 0.11719 0.054687 0.23438 0.03125 0.33984-0.019531 0.10156-0.046875 0.18359 0.023437 0.27734 0.023438 0.03125 0.015625 0.10156 0 0.14453-0.09375 0.27344-0.070312 0.54297-0.003906 0.82031 0.035156 0.14844-0.011719 0.31641-0.019531 0.47656-0.011719 0.36719-0.046875 0.73438-0.023438 1.0977 0.011719 0.19922-0.019531 0.38672-0.011719 0.57812 0.007813 0.24219 0.019532 0.48438 0.003907 0.72656-0.011719 0.25781-0.003907 0.51953-0.003907 0.77734v0.77734 0.77734 0.80469 0.77734 0.77344 0.77734 0.77734 0.77734 0.77344 0.77734 0.80469 0.77734 0.77734 0.77734 0.77344c0 4.3398 0.003907 8.6797 0 13.02 0 0.58984 0.007813 1.1797 0.003907 1.7695-0.007813 0.61719-0.003907 1.2344-0.003907 1.8516 0 0.60938 0.007813 1.2148-0.003906 1.8203 0 0.17578 0.042969 0.34375 0.011719 0.51953-0.03125 0.17578-0.023437 0.35938 0 0.53516 0.03125 0.27734 0 0.54688-0.011719 0.82031-0.007812 0.21094 0.070313 0.41406 0.015625 0.63672-0.050781 0.21875-0.011719 0.45703-0.011719 0.68359v0.6875c0 0.23047-0.003906 0.46094 0.003907 0.6875 0.003906 0.09375 0.039062 0.18359 0.050781 0.27734 0.007812 0.046875 0.011719 0.097657 0.003906 0.14453-0.12891 0.74609-0.027344 1.4961-0.054687 2.2461-0.011719 0.27734 0.003906 0.55859-0.003907 0.83594-0.003906 0.10156 0.015626 0.19922-0.046874 0.30859-0.074219 0.125 0.046874 0.28125 0.19922 0.32031 0.46875 0.12109 0.94922 0.23438 1.3359 0.54297 0.28125 0.23047 0.53516 0.51172 0.75 0.80859 0.37109 0.50781 0.54297 1.0938 0.59375 1.7227 0.007812 0.12109 0.023437 0.24609 0.0625 0.35938 0.03125 0.10938-0.007813 0.21875-0.019532 0.30859-0.058593 0.53906-0.039062 1.0938-0.23437 1.6016-0.22656 0.59375-0.47266 1.1797-0.84375 1.707-0.21484 0.30469-0.39844 0.63672-0.63281 0.92578-0.17188 0.21094-0.41016 0.37891-0.61719 0.5625-0.027344 0.023438-0.074219 0.027344-0.09375 0.054688-0.035157 0.050781-0.058594 0.10938-0.085938 0.16406 0.082031-0.011718 0.14062 0.15625 0.24219 0.035157 0.027343-0.03125 0.089843-0.035157 0.11719-0.066407 0.25-0.29687 0.60547-0.44922 0.91016-0.66406 0.17969-0.13281 0.36328-0.26172 0.54688-0.39062 0.42188-0.28906 0.85547-0.5625 1.2617-0.87109 0.17188-0.13281 0.3125-0.32031 0.4375-0.5 0.17578-0.25 0.33203-0.51562 0.47656-0.78516 0.24609-0.45312 0.47656-0.91406 0.70703-1.375 0.23828-0.46875 0.48047-0.93359 0.69141-1.4102 0.24219-0.54688 0.48828-1.0938 0.61328-1.6875 0.054688-0.25781 0.15234-0.51172 0.21875-0.76953 0.015625-0.054688-0.019531-0.125-0.046875-0.17969-0.027343-0.050781-0.082031-0.085938-0.12109-0.12891-0.3125-0.33594-0.62891-0.67188-0.9375-1.0117-0.19922-0.21094-0.39453-0.42969-0.58203-0.64844-0.22656-0.26172-0.44141-0.53516-0.67188-0.79297-0.066406-0.078125-0.17578-0.11719-0.24219-0.19531-0.17969-0.20703-0.34375-0.42969-0.52344-0.64453-0.16016-0.19141-0.32812-0.37891-0.5-0.56641-0.34375-0.37109-0.69922-0.73438-1.0391-1.1172-0.32031-0.36719-0.625-0.75-0.9375-1.1289-0.027344-0.03125-0.03125-0.085937-0.039063-0.12891-0.003906-0.007813 0.042969-0.035157 0.054688-0.027344 0.058593 0.03125 0.11719 0.0625 0.16406 0.10547 0.24219 0.22266 0.48438 0.44922 0.72656 0.67188 0.39062 0.35938 0.78906 0.71484 1.1797 1.0781 0.37891 0.35547 0.75 0.71484 1.1211 1.0781 0.91797 0.90234 1.8359 1.8047 2.7383 2.7227 0.1875 0.19141 0.33594 0.43359 0.48047 0.66406 0.12109 0.1875 0.10156 0.41406 0.050781 0.61719-0.10156 0.39062-0.27344 0.76172-0.40625 1.1406-0.17578 0.51953-0.44531 0.98828-0.65234 1.4883-0.29687 0.72656-0.67578 1.4102-1.0234 2.1094-0.14844 0.29688-0.33203 0.57812-0.49609 0.86719-0.13672 0.25-0.28516 0.49609-0.40234 0.75391-0.16406 0.37109-0.45703 0.60547-0.76953 0.82031-0.4375 0.29297-0.89844 0.54688-1.3281 0.85156-0.34375 0.23828-0.69531 0.45703-1.0625 0.64844-0.03125 0.019532-0.054687 0.054688-0.082031 0.082032 0.042969 0.011718 0.09375 0.042968 0.12891 0.027344 0.14453-0.050782 0.28516-0.11719 0.42969-0.17188 0.59375-0.22656 1.1914-0.45703 1.7852-0.67969 0.52734-0.19531 1.0352-0.44141 1.5547-0.66797 0.16406-0.070312 0.34375-0.10938 0.50391-0.20703 0.24219-0.14453 0.52734-0.19141 0.76953-0.35156 0.26172-0.16406 0.57812-0.22656 0.82812-0.42187 0.10938-0.085938 0.25-0.125 0.35547-0.21094 0.625-0.49609 1.2578-0.98047 1.9258-1.418 0.55859-0.36719 1.0938-0.78125 1.6406-1.1758 0.015625-0.011719 0.023437-0.039062 0.039063-0.039062 0.37109-0.085938 0.38281-0.41016 0.46484-0.69141 0.09375-0.32031 0.19922-0.63672 0.29688-0.95312 0.14844-0.5 0.3125-0.99609 0.35938-1.5234 0.019531-0.23828 0.11328-0.46875 0.16016-0.70703 0.011718-0.054688-0.019532-0.125-0.050782-0.17969-0.14062-0.26953-0.29688-0.53125-0.43359-0.80469-0.18359-0.36719-0.36328-0.74219-0.48047-1.1406-0.011719-0.035157-0.035156-0.078126-0.023438-0.10547 0.011719-0.03125 0.078125-0.070313 0.085938-0.0625 0.054687 0.042969 0.10547 0.089843 0.14453 0.14453 0.30859 0.44922 0.62891 0.88672 0.91406 1.3516 0.12891 0.20703 0.20312 0.45313 0.26172 0.69531 0.082032 0.33984 0.054688 0.68359-0.046875 1.0312-0.0625 0.20703-0.027343 0.44141-0.070312 0.65625-0.085938 0.44141-0.19141 0.875-0.29297 1.3125-0.074219 0.32422-0.13672 0.65625-0.23828 0.97266-0.125 0.37891-0.30469 0.73047-0.67578 0.9375-0.03125 0.019531-0.054688 0.054688-0.082032 0.082031-0.34766 0.30859-0.68359 0.62891-1.0391 0.92578-0.23438 0.19531-0.50391 0.35547-0.75391 0.53125-0.40234 0.28906-0.79688 0.58984-1.207 0.86328-0.54688 0.35547-1.1055 0.6875-1.7305 0.88281-0.26953 0.082031-0.53125 0.19531-0.78906 0.30078-0.40625 0.16797-0.80078 0.35938-1.2109 0.50391-0.45313 0.16016-0.89453 0.35547-1.3477 0.51953-0.21875 0.078125-0.41797 0.23828-0.67578 0.23047-0.070312-0.003906-0.14453 0.066406-0.22266 0.097656-0.26172 0.10547-0.52344 0.20703-0.78125 0.31641-0.050782 0.019531-0.097656 0.054687-0.14453 0.085937-0.019531 0.015625-0.039062 0.042969-0.058593 0.0625 0.027343 0.007813 0.050781 0.027344 0.078125 0.027344 0.35938 0.003906 0.71484-0.042969 1.0703-0.11328 0.19531-0.039063 0.39453-0.054688 0.59375-0.0625 0.28516-0.007813 0.5625-0.10547 0.83594-0.10938 0.41406-0.003906 0.82422-0.17578 1.25-0.023437 0.14062 0.050781 0.32031-0.015625 0.48047-0.027344 0.066407-0.007812 0.13281-0.019531 0.19922-0.019531 0.37109-0.003906 0.74609 0.015625 1.1172-0.007812 0.35938-0.019532 0.6875 0.085937 1.0117 0.20312 0.34766 0.125 0.6875 0.28906 1.0156 0.46094 0.52734 0.27734 1.0781 0.51172 1.5586 0.87891 0.16406 0.125 0.37891 0.17578 0.5625 0.28125 0.34375 0.19141 0.53906 0.51953 0.71094 0.85938 0.11328 0.22656 0.19141 0.47656 0.30078 0.70703 0.10156 0.21875 0.23438 0.41797 0.33594 0.63672 0.14844 0.31641 0.23828 0.64844 0.25391 1 0.003906 0.12109 0.03125 0.24219 0.054687 0.36328 0.14844 0.71484 0.11719 1.4375 0.11719 2.1602 0 0.03125 0.007812 0.0625 0 0.089843-0.011719 0.027344-0.042969 0.046876-0.066406 0.070313-0.015626-0.019531-0.042969-0.035156-0.050782-0.054687-0.058594-0.22266-0.12891-0.44531-0.17578-0.67188-0.078125-0.40234-0.11328-0.8125-0.19531-1.207-0.10547-0.48828-0.22656-0.98828-0.50781-1.4258-0.3125-0.48828-0.55469-1.0156-0.94141-1.4609-0.16016-0.17969-0.33594-0.33203-0.53125-0.42578-0.85156-0.41016-1.6289-0.95703-2.4805-1.3594-0.59766-0.28125-1.2227-0.38672-1.8711-0.3125-0.1875 0.023438-0.375 0.046875-0.5625 0.046875-0.64062 0.003907-1.2773-0.003906-1.918 0.003907-0.34375 0.007812-0.69531 0.003906-1.0312 0.070312-0.28125 0.054688-0.55469 0.027344-0.83203 0.046875-0.066406 0.003906-0.14062 0-0.19531 0.027344-0.070313 0.035156-0.125 0.097656-0.1875 0.14844 0.050781 0.046875 0.10156 0.097656 0.16016 0.13672 0.46875 0.31641 0.9375 0.63672 1.4141 0.94141 0.64844 0.41406 1.3203 0.78906 2.0078 1.1367 0.35156 0.17578 0.70312 0.34766 1.0469 0.53906 0.22656 0.125 0.41797 0.28906 0.56641 0.52734 0.15625 0.25391 0.31641 0.50391 0.46875 0.76172 0.16406 0.26172 0.38672 0.49219 0.50781 0.77344 0.12109 0.26953 0.31641 0.47656 0.45312 0.73438 0.21484 0.39844 0.45703 0.78125 0.68359 1.1758 0.16406 0.29688 0.33594 0.59375 0.47656 0.90625 0.23438 0.53516 0.48047 1.0742 0.65234 1.6328 0.078125 0.24609-0.015625 0.53906-0.125 0.80469-0.21484 0.52344-0.50781 1.0039-0.76172 1.5039-0.19922 0.39844-0.39844 0.78906-0.64062 1.1641-0.32031 0.49219-0.64062 0.98437-0.96094 1.4766-0.003907 0.007812 0 0.023438 0 0.046875-0.085938 0.015625-0.17578 0.015625-0.27734 0 0.003906-0.054687 0.03125-0.09375 0.042968-0.14062 0.14063-0.53516 0.41016-1.0195 0.59375-1.5391 0.10156-0.28516 0.26563-0.54688 0.41016-0.81641 0.24219-0.44531 0.36328-0.94141 0.52734-1.418 0.042969-0.13281 0.0625-0.27344 0.12109-0.39844 0.078125-0.15625-0.039062-0.27344-0.070312-0.40234-0.089844-0.36328-0.19141-0.73438-0.33984-1.0781-0.4375-1.0234-0.99219-1.9922-1.4844-2.9883-0.22266-0.44922-0.51562-0.85938-0.78125-1.2852-0.125-0.19922-0.22656-0.4375-0.40234-0.57031-0.29688-0.22656-0.625-0.43359-0.97266-0.5625-0.44922-0.17188-0.84375-0.4375-1.2656-0.65625-0.40625-0.21484-0.78516-0.47656-1.1797-0.71094-0.41797-0.25-0.84375-0.48828-1.2578-0.74609-0.10547-0.066406-0.16797-0.0625-0.24609 0.019531-0.10156 0.10938-0.20703 0.21484-0.3125 0.32031-0.054687 0.050781-0.046875 0.085937-0.019531 0.16797 0.11719 0.38281 0.17188 0.76172-0.15234 1.0938-0.13281 0.14062-0.20703 0.33203-0.32422 0.48828-0.03125 0.042969-0.11328 0.046875-0.17578 0.070312-0.011719-0.054687-0.03125-0.10938-0.03125-0.16016 0.003907-0.054687 0.027344-0.10938 0.046875-0.16016 0.074219-0.17578 0.14844-0.35547 0.23047-0.52734 0.11328-0.23438 0.082031-0.45312-0.042969-0.66797-0.050781-0.082031-0.12109-0.12891-0.21875-0.085937-0.20312 0.089843-0.40625 0.058593-0.61328 0.011719-0.027344-0.003907-0.054687-0.027344-0.078125-0.019532-0.125 0.035156-0.27734 0.41797-0.22656 0.55078 0.10547 0.28125 0.19531 0.57422 0.32031 0.84766 0.042969 0.09375 0.058594 0.13672-0.019531 0.19141-0.10547 0.070312-0.14062-0.039062-0.17969-0.089844-0.13281-0.16016-0.26562-0.32422-0.375-0.5-0.14062-0.22266-0.29688-0.47266-0.18359-0.74219 0.125-0.29297 0.082031-0.50391-0.16797-0.68359-0.03125-0.019531-0.0625-0.050781-0.082031-0.082031-0.074219-0.14453-0.17969-0.074219-0.26172-0.03125-0.20703 0.11719-0.40625 0.25391-0.61328 0.375-0.50781 0.29688-1.0156 0.58984-1.5234 0.88672-0.23047 0.13281-0.46484 0.25781-0.6875 0.40234-0.34766 0.22656-0.73047 0.375-1.1016 0.55469-0.25391 0.12109-0.53516 0.22656-0.72266 0.45703-0.15234 0.19141-0.28906 0.39453-0.41797 0.60156-0.27734 0.44922-0.55469 0.89844-0.80859 1.3594-0.33984 0.625-0.66797 1.2539-0.98047 1.8906-0.22266 0.46094-0.48047 0.90625-0.62891 1.4062-0.085938 0.29297-0.1875 0.57812-0.26172 0.875-0.023437 0.082031 0.011719 0.18359 0.03125 0.27734 0.015625 0.070313 0.054687 0.13672 0.078125 0.20703 0.17578 0.54297 0.32031 1.0977 0.59375 1.6016 0.18359 0.33984 0.35156 0.6875 0.49219 1.0469 0.1875 0.45703 0.375 0.91797 0.5625 1.375h-0.28125c-0.48438-0.74609-0.97656-1.4844-1.418-2.2461-0.27734-0.48047-0.55078-0.96484-0.78516-1.4648-0.16406-0.34766-0.38281-0.70703-0.34766-1.1367 0.019532-0.22266 0.09375-0.41797 0.17578-0.61328 0.14453-0.34766 0.25781-0.71094 0.42187-1.0469 0.23047-0.47266 0.48828-0.93359 0.75-1.3906 0.28906-0.49609 0.59375-0.98437 0.89453-1.4727 0.35938-0.57812 0.70703-1.1602 1.0898-1.7227 0.12891-0.19141 0.31641-0.34766 0.54297-0.45312 0.50391-0.24219 0.98438-0.52344 1.4844-0.77344 0.69922-0.35156 1.3555-0.78125 2.0078-1.207 0.32031-0.20703 0.63672-0.41797 0.95312-0.62891 0.039062-0.023438 0.070312-0.058594 0.10938-0.085938 0.10547-0.074218 0.011718-0.12891-0.03125-0.14453-0.10156-0.035156-0.21484-0.058593-0.32422-0.0625-0.46484-0.027343-0.93359-0.007812-1.3906-0.070312-0.76953-0.10547-1.5352-0.019531-2.3047-0.050781-0.42187-0.019532-0.84766-0.03125-1.2695-0.0625-0.34766-0.027344-0.67188 0.089843-0.97266 0.21484-0.47266 0.19531-0.94141 0.41406-1.3633 0.69141-0.36719 0.23828-0.75391 0.42187-1.1328 0.625-0.49219 0.26172-0.87891 0.60547-1.1797 1.0977-0.26562 0.42578-0.46875 0.88672-0.75391 1.2969-0.125 0.18359-0.11328 0.41016-0.17969 0.61328-0.16406 0.52344-0.19922 1.0703-0.29688 1.6094-0.039063 0.22656-0.10938 0.44922-0.17578 0.67188-0.011719 0.039062-0.058594 0.070312-0.085938 0.10547-0.011718-0.035157-0.015625-0.070313-0.027344-0.10547-0.097656-0.30469-0.082031-0.60938-0.023437-0.91797 0.011719-0.042969 0.023437-0.09375 0.019531-0.14062-0.007812-0.42578 0.050782-0.84375 0.11328-1.2656 0.046874-0.32422 0.082031-0.65625 0.1875-0.96484 0.085937-0.24219 0.18359-0.48438 0.3125-0.70703 0.11719-0.19922 0.19922-0.41016 0.28516-0.625 0.23047-0.5625 0.54688-1.0703 1.1602-1.3086 0.28125-0.10937 0.52734-0.30078 0.78516-0.45703 0.20703-0.12109 0.41016-0.24219 0.625-0.34766 0.32812-0.16016 0.64844-0.32812 0.99219-0.45703 0.33203-0.125 0.64844-0.34375 0.98828-0.37891 0.57031-0.0625 1.1523-0.015626 1.7266-0.007813 0.19141 0.003906 0.39844 0.082031 0.56641 0.03125 0.23438-0.070313 0.46094-0.046875 0.6875-0.042969 0.21094 0.007813 0.41797 0.085938 0.62891 0.10938 0.26562 0.035157 0.53516 0.042969 0.80078 0.066407 0.14844 0.011718 0.30859 0.007812 0.44531 0.066406 0.16797 0.070312 0.33984 0.035156 0.50781 0.050781 0.21875 0.019531 0.43359 0.039063 0.65234 0.058594 0.027344 0 0.054688-0.015625 0.078125-0.023438-0.015625-0.019531-0.027344-0.050781-0.046875-0.058593-0.16797-0.074219-0.33203-0.14844-0.50391-0.21484-0.22656-0.09375-0.45312-0.18359-0.68359-0.27344-0.66797-0.26172-1.332-0.53516-2.0078-0.77344-0.33594-0.12109-0.64453-0.30859-0.98438-0.40234-0.44141-0.12109-0.85156-0.32422-1.2773-0.48828-0.35938-0.13672-0.71094-0.31641-1.0508-0.53516-0.48438-0.3125-0.94141-0.66406-1.418-0.98828-0.44922-0.30859-0.90234-0.60156-1.3203-0.96094-0.38281-0.32812-0.75781-0.66016-1.1055-1.0273-0.21094-0.21875-0.3125-0.5-0.375-0.79688-0.035157-0.16406-0.078126-0.32422-0.11719-0.48828-0.085938-0.32031-0.1875-0.64062-0.25781-0.96484-0.066407-0.30469-0.16016-0.60156-0.16406-0.92188 0-0.23047-0.09375-0.46094-0.10547-0.69531-0.019531-0.375-0.003906-0.73828 0.15234-1.0977 0.16797-0.39453 0.42969-0.71875 0.65625-1.0703 0.15625-0.23438 0.32031-0.46094 0.48438-0.69141 0.027344-0.039062 0.046875-0.082031 0.078125-0.11328 0.015625-0.015625 0.054688-0.007812 0.078125 0 0.011719 0.003907 0.023437 0.035157 0.019531 0.046875-0.046875 0.16016-0.078125 0.32812-0.15234 0.47656-0.23828 0.46484-0.39844 0.97266-0.71875 1.4023-0.13281 0.18359-0.18359 0.41016-0.082031 0.66797 0.089844 0.23047 0.078125 0.50391 0.12891 0.75 0.070312 0.32812 0.14062 0.65625 0.23828 0.97656 0.16406 0.54688 0.35547 1.0859 0.52344 1.6328 0.027344 0.089844 0.046875 0.14062 0.13281 0.1875 0.28906 0.16797 0.57031 0.34766 0.84375 0.53516 0.47266 0.33203 0.94531 0.66797 1.4102 1.0156 0.48438 0.35937 0.95703 0.73047 1.4375 1.0938 0.38672 0.29297 0.81641 0.49609 1.25 0.69531 0.28906 0.13281 0.58594 0.24609 0.875 0.38672 0.30859 0.15234 0.62891 0.28516 0.94531 0.41797 0.4375 0.18359 0.86328 0.39453 1.3125 0.54297 0.52734 0.17188 1.0312 0.41016 1.5625 0.56641 0.14062 0.042969 0.26562 0.12109 0.40234 0.17188 0.019531 0.007812 0.058594-0.023438 0.082031-0.046876 0.003907-0.003906-0.015624-0.058593-0.035156-0.066406-0.33203-0.12109-0.60938-0.33984-0.90625-0.51562-0.42969-0.25391-0.85547-0.51562-1.2656-0.80469-0.38672-0.26953-0.76562-0.55469-1-1-0.26172-0.49609-0.57422-0.96875-0.84375-1.4648-0.19922-0.36328-0.36328-0.74219-0.54297-1.1172-0.23437-0.48828-0.47656-0.97266-0.70703-1.4648-0.33203-0.72656-0.61719-1.4727-0.88281-2.2266-0.10938-0.30469-0.03125-0.59375 0.11719-0.86328 0.078125-0.14062 0.16406-0.28125 0.26953-0.39453 0.17578-0.19141 0.375-0.35938 0.5625-0.54297 0.14062-0.14062 0.26562-0.29297 0.40625-0.43359 0.12109-0.12109 0.26172-0.22266 0.38281-0.34375 0.30078-0.30078 0.59375-0.60938 0.89844-0.90625 0.33203-0.32422 0.67187-0.64062 1.0039-0.96094 0.12891-0.125 0.24609-0.25391 0.37109-0.375 0.375-0.36328 0.74219-0.72656 1.125-1.0781 0.41016-0.375 0.83594-0.73438 1.2578-1.0977 0.035156-0.027343 0.082031-0.042968 0.125-0.058593 0.015625-0.003907 0.035156 0.003906 0.054688 0.007812-0.003907 0.019531-0.003907 0.046875-0.015626 0.0625-0.13672 0.17969-0.26953 0.36719-0.41797 0.53906-0.1875 0.22266-0.38672 0.4375-0.58203 0.65234-0.47656 0.52734-0.98047 1.0312-1.4297 1.582-0.33984 0.41797-0.70312 0.80469-1.0664 1.1953-0.25 0.26562-0.45312 0.57812-0.71484 0.82812-0.46875 0.44531-0.83594 0.98828-1.3281 1.4102-0.17969 0.15234-0.17969 0.32031-0.12109 0.51563 0.078125 0.26562 0.17578 0.52344 0.24609 0.79297 0.23828 0.92578 0.71094 1.75 1.1055 2.6094 0.14453 0.30859 0.28516 0.61719 0.44141 0.92188 0.13672 0.26953 0.28125 0.53906 0.4375 0.80078 0.14453 0.24609 0.33984 0.47266 0.45703 0.73437 0.12109 0.27344 0.35156 0.42188 0.5625 0.58984 0.22656 0.1875 0.49219 0.32812 0.73438 0.49609 0.31641 0.21875 0.62109 0.44922 0.9375 0.66797 0.12109 0.082031 0.26562 0.12891 0.38281 0.21875 0.20312 0.14844 0.41016 0.30469 0.59375 0.48438 0.12109 0.125 0.21875 0.035156 0.30078-0.011719 0.097656-0.050781-0.003906-0.11719-0.046875-0.15234-0.19531-0.16797-0.39844-0.32812-0.59766-0.48828-0.32422-0.26562-0.5-0.64453-0.72656-0.98047-0.23438-0.35156-0.46875-0.71094-0.625-1.1094-0.20703-0.51953-0.39453-1.0352-0.46094-1.6016-0.046875-0.40234-0.054688-0.80469-0.035156-1.2031 0.011718-0.32422 0.042968-0.65234 0.18359-0.96094 0.082031-0.17578 0.12891-0.36328 0.20703-0.54297 0.13281-0.31641 0.32422-0.57812 0.55859-0.80469 0.19531-0.19922 0.46094-0.32812 0.66406-0.51953 0.18359-0.17188 0.41797-0.19141 0.625-0.27734 0.16016-0.070312 0.33984-0.085938 0.50391-0.14453 0.078125-0.027344 0.14062-0.078125 0.14062-0.20312-0.011719-0.58594-0.003906-1.1719-0.007812-1.7617 0-0.11719-0.015626-0.23438-0.023438-0.34766-0.011719-0.10938-0.039062-0.21875-0.03125-0.32422 0.039062-0.46094-0.019531-0.92188-0.003906-1.3828 0.011718-0.46875 0-0.9375 0-1.4023v-1.4336-1.4062c0-0.47656-0.003906-0.95312 0.003906-1.4297 0.003906-0.28125 0.046875-0.5625 0.050781-0.84375 0.003907-0.16016 0.03125-0.32031-0.042969-0.48828-0.042968-0.089843 0.046876-0.23438 0.046876-0.35547 0.003906-1.4141-0.003907-2.8281 0.011718-4.2422 0.003906-0.13281-0.11328-0.24609-0.019531-0.40625 0.058594-0.10156-0.003906-0.27344 0.011719-0.41016 0.027344-0.25391-0.042969-0.5-0.011719-0.75781 0.035156-0.26172 0.007813-0.53516 0.011719-0.80469 0-0.26172-0.019532-0.52344-0.015625-0.78516 0.007812-0.25391 0.050781-0.52344-0.046875-0.77344 0.17969-0.21094-0.082032-0.45703 0.058594-0.67188 0.003906-0.007812 0.003906-0.019531 0-0.03125-0.078126-0.39844-0.10156-0.80078 0-1.2031-0.10156-0.20312-0.074219-0.42578-0.050782-0.63281 0.042969-0.33594-0.03125-0.66406-0.003906-0.99609 0.015625-0.19141 0.015625-0.38281 0-0.57812-0.015625-0.19531 0.03125-0.39062 0.046875-0.58203 0.011719-0.17969-0.042969-0.35937-0.046875-0.54297 0-0.12109-0.054688-0.25391 0.050781-0.36719 0.019531-0.019531-0.015625-0.085937-0.019531-0.13281-0.003906-0.0625-0.007812-0.125-0.003906-0.18359 0.003906-0.054688 0.042968-0.125 0.023437-0.16406-0.11328-0.23047-0.003906-0.47266-0.050781-0.70313-0.027344-0.14062 0.0625-0.27734 0.015625-0.42969-0.007813-0.03125 0.03125-0.09375-0.003906-0.16797-0.035157-0.066406 0-0.16797 0-0.25391 0.003906-0.12891 0.003906-0.25391 0.003906-0.38281 0-0.046876-0.011719-0.09375-0.015625-0.14063-0.003906-0.015624 0.003906-0.45703 0.003906-0.47266-0.003906-0.027344-0.015625-0.0625-0.003906-0.085937 0.11328-0.28125-0.058594-0.5625-0.003906-0.84766 0.023437-0.10937-0.027344-0.22266 0.050781-0.33984 0.039063-0.050781-0.011719-0.16406-0.015625-0.25-0.003906-0.14062-0.007812-0.28125-0.003906-0.42188 0.003906-0.085938 0.042968-0.17969 0.023437-0.25391-0.046875-0.16797-0.089843-0.32813 0.003907-0.49219-0.125-0.15625-0.042969-0.33984-0.054688-0.51172-0.011719-0.23438-0.007812-0.46875 0.050781-0.70312 0.019531-0.089844-0.046875-0.19922-0.050781-0.30078-0.007812-0.17188 0.019531-0.34375 0.042969-0.51562 0.019531-0.15234-0.097657-0.31641 0.003906-0.49219 0.03125-0.050781-0.046875-0.15625-0.046875-0.23828 0.003906-0.13281 0.050781-0.26172 0.050781-0.39453 0-0.12109-0.0625-0.24609-0.046875-0.35938 0.039063-0.32422-0.019531-0.64453-0.007812-0.96875 0.007812-0.32812-0.003906-0.65625 0.003906-0.98438 0.003906-0.11328 0.074219-0.23438 0.050781-0.33203-0.089843-0.33594-0.03125-0.66406 0-1 0.011719-0.10547-0.050781-0.21875-0.050781-0.33203-0.003906-3.8203-0.003906-7.6445 0-11.465 0.003906-0.22266-0.035156-0.44141-0.011719-0.66797 0.023438-0.21484-0.035156-0.44141-0.046875-0.66016-0.003906-0.11719 0.023438-0.23438 0.023438-0.35156 0-0.125-0.027344-0.25-0.023438-0.375 0.003906-0.13281 0.082032-0.28125 0.046875-0.39062-0.0625-0.17578-0.046875-0.34375-0.046875-0.51562-0.003906-0.85547-0.019531-1.7148 0.003906-2.5703 0.007813-0.35156-0.019531-0.70312-0.007812-1.0547 0.011719-0.36719 0-0.73438 0-1.1055v-1.1016-1.1367-1.1055-1.1055c0-0.36719-0.015625-0.73438 0.007812-1.1016 0.011719-0.14844-0.085937-0.27344-0.019531-0.43359 0.054688-0.13672 0.019531-0.31641 0.011719-0.47266-0.007812-0.09375-0.039062-0.18359-0.054688-0.27734-0.007812-0.058593-0.027343-0.14062 0-0.17187 0.10547-0.11719 0.035157-0.24609 0.054688-0.38281 0.32422-0.015625 0.64844-0.015625 0.98828-0.015625z"/>
</svg>
