<svg xmlns="http://www.w3.org/2000/svg" width="96" height="96" viewBox="0 0 96 96" fill="none">
  <defs>
    <radialGradient id="badgeFill" cx="36%" cy="54%" r="76%">
      <stop offset="0%" stop-color="#469456"/>
      <stop offset="55%" stop-color="#3B854B"/>
      <stop offset="100%" stop-color="#2C6337"/>
    </radialGradient>
    <linearGradient id="topShade" x1="47" y1="22" x2="47" y2="35" gradientUnits="userSpaceOnUse">
      <stop offset="0%" stop-color="#204A29" stop-opacity="0.85"/>
      <stop offset="100%" stop-color="#204A29" stop-opacity="0"/>
    </linearGradient>
    <clipPath id="triangleClip">
      <path d="M28 27H67L49.5 72.5L28 27Z"/>
    </clipPath>
  </defs>
  <g>
    <path
      fill="#000000"
      fill-opacity="0.16"
      fill-rule="evenodd"
      clip-rule="evenodd"
      d="M27.5 24.5H69.5A7 7 0 0 1 76.5 31.5V73.5A7 7 0 0 1 69.5 80.5H27.5A7 7 0 0 1 20.5 73.5V31.5A7 7 0 0 1 27.5 24.5ZM28 27H67L49.5 72.5L28 27ZM57.6896476745605 58.8667984008789L65.6710968017578 58.8667984008789 65.6710968017578 61.6919937133789 59.9777336120605 61.6919937133789 59.5050773620605 64.3667984008789C60.1782531738281 64.0302124023438 60.8657531738281 63.8619155883789 61.5675773620605 63.8619155883789 62.9067687988281 63.8619155883789 64.041862487793 64.3488922119141 64.9728546142578 65.3228530883789 65.9038391113281 66.2968139648438 66.3693389892578 67.5608062744141 66.3693389892578 69.1148452758789 66.3693389892578 70.4110717773438 65.9933624267578 71.5676422119141 65.2414093017578 72.5845718383789 64.2173156738281 73.9738922119141 62.795768737793 74.6685562133789 60.9767570495605 74.6685562133789 59.5229797363281 74.6685562133789 58.337760925293 74.2782592773438 57.4210929870605 73.4976577758789 56.5044250488281 72.7170562744141 55.9565734863281 71.6679077148438 55.7775382995605 70.3501968383789L58.7853507995605 70.0386734008789C58.8712882995605 70.7190093994141 59.1255187988281 71.2579116821289 59.5480461120605 71.6553726196289 59.970573425293 72.0528335571289 60.4575500488281 72.2515640258789 61.0089836120605 72.2515640258789 61.6391906738281 72.2515640258789 62.172721862793 71.9955444335938 62.6095695495605 71.4834976196289 63.0464172363281 70.9714508056641 63.2648429870605 70.1998062133789 63.2648429870605 69.1685562133789 63.2648429870605 68.2017593383789 63.048210144043 67.4766616821289 62.6149406433105 66.9932632446289 62.1816711425781 66.5098648071289 61.6177062988281 66.2681655883789 60.9230461120605 66.2681655883789 60.056510925293 66.2681655883789 59.2794914245605 66.6513061523438 58.5919914245605 67.4175796508789L56.1427726745605 67.0630874633789 57.6896476745605 58.8667984008789Z"
    />
    <path
      fill="url(#badgeFill)"
      fill-rule="evenodd"
      clip-rule="evenodd"
      d="M26 22H68A7 7 0 0 1 75 29V71A7 7 0 0 1 68 78H26A7 7 0 0 1 19 71V29A7 7 0 0 1 26 22ZM28 27H67L49.5 72.5L28 27ZM57.6896476745605 58.8667984008789L65.6710968017578 58.8667984008789 65.6710968017578 61.6919937133789 59.9777336120605 61.6919937133789 59.5050773620605 64.3667984008789C60.1782531738281 64.0302124023438 60.8657531738281 63.8619155883789 61.5675773620605 63.8619155883789 62.9067687988281 63.8619155883789 64.041862487793 64.3488922119141 64.9728546142578 65.3228530883789 65.9038391113281 66.2968139648438 66.3693389892578 67.5608062744141 66.3693389892578 69.1148452758789 66.3693389892578 70.4110717773438 65.9933624267578 71.5676422119141 65.2414093017578 72.5845718383789 64.2173156738281 73.9738922119141 62.795768737793 74.6685562133789 60.9767570495605 74.6685562133789 59.5229797363281 74.6685562133789 58.337760925293 74.2782592773438 57.4210929870605 73.4976577758789 56.5044250488281 72.7170562744141 55.9565734863281 71.6679077148438 55.7775382995605 70.3501968383789L58.7853507995605 70.0386734008789C58.8712882995605 70.7190093994141 59.1255187988281 71.2579116821289 59.5480461120605 71.6553726196289 59.970573425293 72.0528335571289 60.4575500488281 72.2515640258789 61.0089836120605 72.2515640258789 61.6391906738281 72.2515640258789 62.172721862793 71.9955444335938 62.6095695495605 71.4834976196289 63.0464172363281 70.9714508056641 63.2648429870605 70.1998062133789 63.2648429870605 69.1685562133789 63.2648429870605 68.2017593383789 63.048210144043 67.4766616821289 62.6149406433105 66.9932632446289 62.1816711425781 66.5098648071289 61.6177062988281 66.2681655883789 60.9230461120605 66.2681655883789 60.056510925293 66.2681655883789 59.2794914245605 66.6513061523438 58.5919914245605 67.4175796508789L56.1427726745605 67.0630874633789 57.6896476745605 58.8667984008789Z"
    />
    <path
      fill="url(#topShade)"
      fill-rule="evenodd"
      clip-rule="evenodd"
      d="M25.5 22H68.5A6.5 6.5 0 0 1 75 28.5A6.5 6.5 0 0 1 68.5 35H25.5A6.5 6.5 0 0 1 19 28.5A6.5 6.5 0 0 1 25.5 22ZM28 27H67L49.5 72.5L28 27ZM57.6896476745605 58.8667984008789L65.6710968017578 58.8667984008789 65.6710968017578 61.6919937133789 59.9777336120605 61.6919937133789 59.5050773620605 64.3667984008789C60.1782531738281 64.0302124023438 60.8657531738281 63.8619155883789 61.5675773620605 63.8619155883789 62.9067687988281 63.8619155883789 64.041862487793 64.3488922119141 64.9728546142578 65.3228530883789 65.9038391113281 66.2968139648438 66.3693389892578 67.5608062744141 66.3693389892578 69.1148452758789 66.3693389892578 70.4110717773438 65.9933624267578 71.5676422119141 65.2414093017578 72.5845718383789 64.2173156738281 73.9738922119141 62.795768737793 74.6685562133789 60.9767570495605 74.6685562133789 59.5229797363281 74.6685562133789 58.337760925293 74.2782592773438 57.4210929870605 73.4976577758789 56.5044250488281 72.7170562744141 55.9565734863281 71.6679077148438 55.7775382995605 70.3501968383789L58.7853507995605 70.0386734008789C58.8712882995605 70.7190093994141 59.1255187988281 71.2579116821289 59.5480461120605 71.6553726196289 59.970573425293 72.0528335571289 60.4575500488281 72.2515640258789 61.0089836120605 72.2515640258789 61.6391906738281 72.2515640258789 62.172721862793 71.9955444335938 62.6095695495605 71.4834976196289 63.0464172363281 70.9714508056641 63.2648429870605 70.1998062133789 63.2648429870605 69.1685562133789 63.2648429870605 68.2017593383789 63.048210144043 67.4766616821289 62.6149406433105 66.9932632446289 62.1816711425781 66.5098648071289 61.6177062988281 66.2681655883789 60.9230461120605 66.2681655883789 60.056510925293 66.2681655883789 59.2794914245605 66.6513061523438 58.5919914245605 67.4175796508789L56.1427726745605 67.0630874633789 57.6896476745605 58.8667984008789Z"
    />
    <rect x="19" y="22" width="56" height="56" rx="7" fill="none" stroke="#234F2E" stroke-width="2"/>
    <g clip-path="url(#triangleClip)">
      <path
        d="M52.56 52.41L48.07 52.41L48.07 51.42C47.57 52.27 46.93 52.7 46.15 52.7C45.21 52.7 44.54 52.3 44.16 51.51L44.16 57.11L39.39 57.11L39.39 39.97L44.16 39.97L44.16 46.21C44.16 46.78 44.19 47.23 44.26 47.59C44.33 47.94 44.49 48.25 44.76 48.53C45.03 48.81 45.45 48.95 46.01 48.95C46.6 48.95 47.04 48.76 47.34 48.39C47.64 48.03 47.79 47.26 47.79 46.09L47.79 39.97L52.56 39.97Z"
        transform="matrix(1.19 0 0 1 -5.87 -4.97)"
        fill="#3B854B"
      />
    </g>
  </g>
</svg>
